<svg width="28" height="28" viewBox="0 0 28 28" fill="none" xmlns="http://www.w3.org/2000/svg">
<g id="star-04">
<path id="Icon" d="M13.9987 2.33203L16.346 8.43496C16.675 9.2904 16.8395 9.71812 17.0953 10.0779C17.3221 10.3968 17.6006 10.6753 17.9195 10.9021C18.2793 11.1579 18.707 11.3224 19.5624 11.6514L25.6654 13.9987L19.5624 16.346C18.707 16.675 18.2793 16.8395 17.9195 17.0953C17.6006 17.3221 17.3221 17.6006 17.0953 17.9195C16.8395 18.2793 16.675 18.707 16.346 19.5624L13.9987 25.6654L11.6514 19.5624C11.3224 18.707 11.1579 18.2793 10.9021 17.9195C10.6753 17.6006 10.3968 17.3221 10.0779 17.0953C9.71812 16.8395 9.2904 16.675 8.43497 16.346L2.33203 13.9987L8.43496 11.6514C9.2904 11.3224 9.71811 11.1579 10.0779 10.9021C10.3968 10.6753 10.6753 10.3968 10.9021 10.0779C11.1579 9.71812 11.3224 9.2904 11.6514 8.43496L13.9987 2.33203Z" stroke="#0287E6" stroke-width="2.5" stroke-linecap="round" stroke-linejoin="round"/>
</g>
</svg>
