<svg width="28" height="28" viewBox="0 0 28 28" fill="none" xmlns="http://www.w3.org/2000/svg">
<g id="vuesax/linear/building">
<g id="building">
<path id="Vector" d="M14.5819 25.6658H4.75854C3.40521 25.6658 2.29688 24.5808 2.29688 23.2508V5.93744C2.29688 2.88077 4.57187 1.49244 7.36021 2.85744L12.5402 5.40077C13.6602 5.94911 14.5819 7.40744 14.5819 8.64411V25.6658Z" stroke="white" stroke-width="1.5" stroke-linecap="round" stroke-linejoin="round"/>
<path id="Vector_2" d="M25.6304 17.5696V21.9796C25.6304 24.4996 24.4637 25.6663 21.9437 25.6663H14.582V12.1562L15.1304 12.2729L20.3804 13.4512L22.7487 13.9762C24.2887 14.3146 25.5487 15.1079 25.6187 17.3479C25.6304 17.4179 25.6304 17.4879 25.6304 17.5696Z" stroke="white" stroke-width="1.5" stroke-linecap="round" stroke-linejoin="round"/>
<path id="Vector_3" d="M6.41797 10.5H10.4663" stroke="white" stroke-width="1.5" stroke-linecap="round" stroke-linejoin="round"/>
<path id="Vector_4" d="M6.41797 15.168H10.4663" stroke="white" stroke-width="1.5" stroke-linecap="round" stroke-linejoin="round"/>
<path id="Vector_5" d="M20.3828 13.4518V17.2084C20.3828 18.6551 19.2045 19.8334 17.7578 19.8334C16.3111 19.8334 15.1328 18.6551 15.1328 17.2084V12.2734L20.3828 13.4518Z" stroke="white" stroke-width="1.5" stroke-linecap="round" stroke-linejoin="round"/>
<path id="Vector_6" d="M25.6211 17.3498C25.5511 18.7265 24.4078 19.8348 23.0078 19.8348C21.5611 19.8348 20.3828 18.6565 20.3828 17.2098V13.4531L22.7511 13.9781C24.2911 14.3165 25.5511 15.1098 25.6211 17.3498Z" stroke="white" stroke-width="1.5" stroke-linecap="round" stroke-linejoin="round"/>
</g>
</g>
</svg>
