<svg width="28" height="28" viewBox="0 0 28 28" fill="none" xmlns="http://www.w3.org/2000/svg">
<g id="vuesax/outline/electricity">
<g id="electricity">
<path id="Vector" d="M15.7487 19.5404H12.2487C9.04036 19.5404 6.70703 17.207 6.70703 13.9987V8.07203C6.70703 6.35703 8.10705 4.95703 9.82205 4.95703H18.187C19.902 4.95703 21.302 6.35703 21.302 8.07203V13.9987C21.2904 17.207 18.957 19.5404 15.7487 19.5404ZM9.82205 6.70703C9.07538 6.70703 8.45703 7.3137 8.45703 8.07203V13.9987C8.45703 15.8887 9.6237 17.7904 12.2487 17.7904H15.7487C18.3737 17.7904 19.5404 15.8887 19.5404 13.9987V8.07203C19.5404 7.32536 18.9337 6.70703 18.1753 6.70703H9.82205Z" fill="white"/>
<path id="Vector_2" d="M11.082 6.70703C10.6037 6.70703 10.207 6.31036 10.207 5.83203V2.33203C10.207 1.8537 10.6037 1.45703 11.082 1.45703C11.5604 1.45703 11.957 1.8537 11.957 2.33203V5.83203C11.957 6.31036 11.5604 6.70703 11.082 6.70703Z" fill="white"/>
<path id="Vector_3" d="M16.918 6.70703C16.4396 6.70703 16.043 6.31036 16.043 5.83203V2.33203C16.043 1.8537 16.4396 1.45703 16.918 1.45703C17.3963 1.45703 17.793 1.8537 17.793 2.33203V5.83203C17.793 6.31036 17.3963 6.70703 16.918 6.70703Z" fill="white"/>
<path id="Vector_4" d="M14 26.543C13.5217 26.543 13.125 26.1463 13.125 25.668V18.668C13.125 18.1896 13.5217 17.793 14 17.793C14.4783 17.793 14.875 18.1896 14.875 18.668V25.668C14.875 26.1463 14.4783 26.543 14 26.543Z" fill="white"/>
</g>
</g>
</svg>
