<svg width="14" height="14" viewBox="0 0 14 14" fill="none" xmlns="http://www.w3.org/2000/svg">
<g id="vuesax/linear/setting-2">
<g id="setting-2">
<path id="Vector" d="M7 8.75C7.9665 8.75 8.75 7.9665 8.75 7C8.75 6.0335 7.9665 5.25 7 5.25C6.0335 5.25 5.25 6.0335 5.25 7C5.25 7.9665 6.0335 8.75 7 8.75Z" stroke="white" stroke-width="1.25" stroke-miterlimit="10" stroke-linecap="round" stroke-linejoin="round"/>
<path id="Vector_2" d="M1.16797 7.51155V6.48488C1.16797 5.87821 1.6638 5.37655 2.2763 5.37655C3.33214 5.37655 3.7638 4.62988 3.23297 3.71405C2.92964 3.18905 3.11047 2.50655 3.6413 2.20321L4.65047 1.62571C5.1113 1.35155 5.7063 1.51488 5.98047 1.97571L6.04464 2.08655C6.56964 3.00238 7.43297 3.00238 7.9638 2.08655L8.02797 1.97571C8.30214 1.51488 8.89714 1.35155 9.35797 1.62571L10.3671 2.20321C10.898 2.50655 11.0788 3.18905 10.7755 3.71405C10.2446 4.62988 10.6763 5.37655 11.7321 5.37655C12.3388 5.37655 12.8405 5.87238 12.8405 6.48488V7.51155C12.8405 8.11821 12.3446 8.61988 11.7321 8.61988C10.6763 8.61988 10.2446 9.36655 10.7755 10.2824C11.0788 10.8132 10.898 11.4899 10.3671 11.7932L9.35797 12.3707C8.89714 12.6449 8.30214 12.4815 8.02797 12.0207L7.9638 11.9099C7.4388 10.994 6.57547 10.994 6.04464 11.9099L5.98047 12.0207C5.7063 12.4815 5.1113 12.6449 4.65047 12.3707L3.6413 11.7932C3.11047 11.4899 2.92964 10.8074 3.23297 10.2824C3.7638 9.36655 3.33214 8.61988 2.2763 8.61988C1.6638 8.61988 1.16797 8.11821 1.16797 7.51155Z" stroke="white" stroke-width="1.25" stroke-miterlimit="10" stroke-linecap="round" stroke-linejoin="round"/>
</g>
</g>
</svg>
