<svg width="28" height="28" viewBox="0 0 28 28" fill="none" xmlns="http://www.w3.org/2000/svg">
<g id="tool-02">
<path id="Icon" d="M6.9987 6.9987L12.2487 12.2487M6.9987 6.9987H3.4987L2.33203 3.4987L3.4987 2.33203L6.9987 3.4987V6.9987ZM22.4675 3.19655L19.402 6.2621C18.9399 6.72412 18.7089 6.95513 18.6224 7.22151C18.5462 7.45583 18.5462 7.70823 18.6224 7.94255C18.7089 8.20893 18.9399 8.43994 19.402 8.90196L19.6788 9.17876C20.1408 9.64078 20.3718 9.87179 20.6382 9.95835C20.8725 10.0345 21.1249 10.0345 21.3592 9.95835C21.6256 9.87179 21.8566 9.64078 22.3186 9.17877L25.1862 6.3112C25.495 7.06273 25.6654 7.88582 25.6654 8.7487C25.6654 12.2925 22.7925 15.1654 19.2487 15.1654C18.8215 15.1654 18.404 15.1236 18.0001 15.044C17.4329 14.9321 17.1493 14.8762 16.9774 14.8933C16.7946 14.9115 16.7046 14.9389 16.5426 15.0256C16.3903 15.1071 16.2375 15.2599 15.9319 15.5655L7.58203 23.9153C6.61553 24.8818 5.04853 24.8818 4.08203 23.9153C3.11553 22.9488 3.11553 21.3818 4.08203 20.4153L12.4319 12.0655C12.7375 11.7599 12.8903 11.6071 12.9718 11.4548C13.0585 11.2928 13.0859 11.2027 13.1041 11.02C13.1212 10.8481 13.0653 10.5645 12.9534 9.99731C12.8738 9.59343 12.832 9.17594 12.832 8.7487C12.832 5.20487 15.7049 2.33203 19.2487 2.33203C20.4218 2.33203 21.5213 2.64682 22.4675 3.19655ZM13.9988 17.4986L20.4154 23.9152C21.3819 24.8817 22.9489 24.8817 23.9154 23.9152C24.8819 22.9487 24.8818 21.3817 23.9153 20.4152L18.6366 15.1365C18.2629 15.1012 17.8985 15.0338 17.5463 14.9371C17.0924 14.8125 16.5945 14.9029 16.2616 15.2358L13.9988 17.4986Z" stroke="white" stroke-width="1.3" stroke-linecap="round" stroke-linejoin="round"/>
</g>
</svg>
