<svg width="21" height="27" viewBox="0 0 21 27" fill="none" xmlns="http://www.w3.org/2000/svg">
<path id="Vector" d="M14.6667 0C17.8883 0 20.5 2.61167 20.5 5.83333V20.8333C20.5 24.055 17.8883 26.6667 14.6667 26.6667H6.33333C3.11167 26.6667 0.5 24.055 0.5 20.8333V5.83333C0.5 2.61167 3.11167 0 6.33333 0H14.6667ZM18.8333 14.1667H2.16667V20.8333C2.16667 23.074 3.93526 24.9015 6.15259 24.9962L6.33333 25H14.6667C16.9679 25 18.8333 23.1345 18.8333 20.8333V14.1667ZM5.5 16.6667C5.96024 16.6667 6.33333 17.0398 6.33333 17.5V19.1667C6.33333 19.6269 5.96024 20 5.5 20C5.03976 20 4.66667 19.6269 4.66667 19.1667V17.5C4.66667 17.0398 5.03976 16.6667 5.5 16.6667ZM14.6667 1.66667H6.33333C4.03215 1.66667 2.16667 3.53215 2.16667 5.83333V12.5H18.8333V5.83333C18.8333 3.5927 17.0647 1.76515 14.8474 1.67052L14.6667 1.66667ZM5.5 6.66667C5.96024 6.66667 6.33333 7.03976 6.33333 7.5V9.16667C6.33333 9.6269 5.96024 10 5.5 10C5.03976 10 4.66667 9.6269 4.66667 9.16667V7.5C4.66667 7.03976 5.03976 6.66667 5.5 6.66667Z" fill="white"/>
</svg>
