<svg width="28" height="24" viewBox="0 0 28 24" fill="none" xmlns="http://www.w3.org/2000/svg">
<path id="Vector" d="M9.36448 7.04673C6.76324 8.19938 4.69159 10.2679 3.53583 12.8692C3.36137 13.2617 3.53894 13.7196 3.93146 13.8941C4.03427 13.9408 4.14019 13.9626 4.24611 13.9626C4.54517 13.9626 4.82866 13.7913 4.95639 13.5016C5.95639 11.2523 7.74455 9.46417 9.99377 8.46729C10.3863 8.29283 10.5639 7.83489 10.3894 7.44237C10.2181 7.04984 9.75701 6.87227 9.36448 7.04673ZM16.0498 3.66667C16.2741 3.29907 16.4112 2.87227 16.4112 2.41121C16.4112 1.07788 15.3302 0 14 0C12.6667 0 11.5888 1.081 11.5888 2.41121C11.5888 2.87227 11.7259 3.30218 11.9502 3.66667C5.19938 4.66044 0.00311522 10.4891 0.00311522 17.5109V19.1963C0.00311522 19.6262 0.352025 19.9751 0.781932 19.9751H27.2212C27.6511 19.9751 28 19.6262 28 19.1963V17.5109C27.9969 10.4891 22.7975 4.66355 16.0498 3.66667ZM26.4424 18.4174H1.55763V17.5109C1.55763 10.6511 7.14019 5.07165 14 5.07165C20.8598 5.07165 26.4424 10.6511 26.4424 17.5109V18.4174ZM27.2181 21.5389H0.778816C0.348909 21.5389 0 21.8878 0 22.3178C0 22.7477 0.348909 23.0966 0.778816 23.0966H27.2181C27.648 23.0966 27.9969 22.7477 27.9969 22.3178C27.9969 21.8878 27.648 21.5389 27.2181 21.5389Z" fill="white"/>
</svg>
